<?xml version="1.0" standalone="no"?>
<!DOCTYPE svg PUBLIC "-//W3C//DTD SVG 20010904//EN"
 "http://www.w3.org/TR/2001/REC-SVG-20010904/DTD/svg10.dtd">
<svg version="1.0" xmlns="http://www.w3.org/2000/svg"
 width="273.000000pt" height="185.000000pt" viewBox="0 0 273.000000 185.000000"
 preserveAspectRatio="xMidYMid meet">

<g transform="translate(0.000000,185.000000) scale(0.100000,-0.100000)"
fill="#000000" stroke="none">
<path d="M435 1829 c-4 -6 -5 -12 -2 -15 2 -3 7 2 10 11 7 17 1 20 -8 4z"/>
<path d="M461 1814 c0 -11 3 -14 6 -6 3 7 2 16 -1 19 -3 4 -6 -2 -5 -13z"/>
<path d="M1000 853 c0 -82 -2 -157 -5 -168 -3 -12 4 -30 16 -45 l21 -25 -7 28
c-4 19 -2 26 5 22 5 -3 10 -15 10 -26 0 -12 4 -17 11 -14 6 4 8 14 5 22 -3 8
-1 11 4 8 6 -4 10 56 10 169 l0 176 -35 0 -35 0 0 -147z"/>
<path d="M2122 832 c3 -165 2 -169 -17 -164 -20 5 -20 5 -1 -16 23 -26 26 -26
52 -7 15 12 16 16 6 23 -10 7 -13 48 -14 171 0 135 -2 161 -14 161 -13 0 -15
-26 -12 -168z"/>
<path d="M206 582 c-3 -5 1 -9 9 -9 8 0 12 4 9 9 -3 4 -7 8 -9 8 -2 0 -6 -4
-9 -8z"/>
<path d="M765 572 c-179 -4 -188 -22 -12 -23 75 -1 143 -2 150 -3 14 -1 17 27
2 28 -5 1 -68 0 -140 -2z"/>
<path d="M1155 570 c-12 -20 2 -23 112 -22 59 1 214 2 343 3 129 1 219 4 199
8 -20 4 -166 8 -325 10 -159 1 -296 4 -306 7 -9 3 -19 0 -23 -6z"/>
<path d="M2485 573 c-27 -2 -88 -6 -135 -10 l-85 -8 135 -5 c74 -3 139 -2 145
3 17 13 -9 22 -60 20z"/>
<path d="M768 483 c7 -3 16 -2 19 1 4 3 -2 6 -13 5 -11 0 -14 -3 -6 -6z"/>
<path d="M800 476 c0 -2 9 -6 20 -9 11 -3 18 -1 14 4 -5 9 -34 13 -34 5z"/>
<path d="M875 460 c-3 -5 1 -10 9 -10 9 0 16 5 16 10 0 6 -4 10 -9 10 -6 0
-13 -4 -16 -10z"/>
<path d="M1108 463 c7 -3 16 -2 19 1 4 3 -2 6 -13 5 -11 0 -14 -3 -6 -6z"/>
<path d="M2135 420 c-3 -5 -1 -10 4 -10 6 0 11 5 11 10 0 6 -2 10 -4 10 -3 0
-8 -4 -11 -10z"/>
<path d="M914 339 c-4 -7 -3 -9 4 -5 5 3 13 0 15 -6 4 -9 6 -10 6 -1 1 17 -16
25 -25 12z"/>
<path d="M512 110 c0 -14 2 -19 5 -12 2 6 2 18 0 25 -3 6 -5 1 -5 -13z"/>
<path d="M845 119 c-4 -6 -5 -12 -2 -15 2 -3 7 2 10 11 7 17 1 20 -8 4z"/>
<path d="M1752 110 c0 -14 2 -19 5 -12 2 6 2 18 0 25 -3 6 -5 1 -5 -13z"/>
<path d="M2566 112 c-3 -5 1 -9 9 -9 8 0 12 4 9 9 -3 4 -7 8 -9 8 -2 0 -6 -4
-9 -8z"/>
<path d="M1283 43 c1 -16 5 -19 13 -12 8 7 14 6 17 -1 4 -7 5 -7 3 0 -1 7 -5
11 -10 10 -5 -1 -12 4 -17 12 -6 9 -8 6 -6 -9z"/>
<path d="M1353 43 c-7 -3 -13 -10 -13 -16 0 -5 3 -7 7 -4 3 4 12 2 19 -4 9 -7
12 -6 10 5 -3 20 -8 24 -23 19z"/>
<path d="M1401 34 c0 -11 3 -14 6 -6 3 7 2 16 -1 19 -3 4 -6 -2 -5 -13z"/>
<path d="M1455 39 c-4 -6 -5 -12 -2 -15 2 -3 7 2 10 11 7 17 1 20 -8 4z"/>
<path d="M1486 42 c-3 -5 1 -9 9 -9 8 0 12 4 9 9 -7 10 -11 10 -18 0z"/>
<path d="M1420 30 c0 -5 5 -10 11 -10 5 0 7 5 4 10 -3 6 -8 10 -11 10 -2 0 -4
-4 -4 -10z"/>
</g>
</svg>
